<?xml version="1.0" encoding="iso-8859-1"?>
<!-- Generator: Adobe Illustrator 18.1.1, SVG Export Plug-In . SVG Version: 6.00 Build 0)  -->
<svg version="1.1" id="Capa_1" xmlns="http://www.w3.org/2000/svg" xmlns:xlink="http://www.w3.org/1999/xlink" x="0px" y="0px"
	 viewBox="0 0 13.082 13.082" style="enable-background:new 0 0 13.082 13.082;" xml:space="preserve">
<g>
	<g>
		<path style="fill:#030104;" d="M4.303,10.075L3.016,9.578c0.172,0.691,0.796,1.203,1.541,1.203c0.877,0,1.589-0.711,1.589-1.589
			c0-0.876-0.712-1.588-1.589-1.588c-0.316,0-0.61,0.093-0.857,0.252l1.271,0.49c0.477,0.185,0.715,0.721,0.531,1.198
			C5.317,10.022,4.781,10.261,4.303,10.075z"/>
		<path style="fill:#030104;" d="M9.206,6.364c1.086,0,1.969-0.883,1.969-1.969s-0.883-1.969-1.969-1.969
			c-1.085,0-1.969,0.883-1.969,1.969C7.237,5.48,8.121,6.364,9.206,6.364z M9.206,3.008c0.766,0,1.388,0.622,1.388,1.387
			S9.972,5.782,9.206,5.782c-0.765,0-1.387-0.622-1.387-1.387S8.441,3.008,9.206,3.008z"/>
		<path style="fill:#030104;" d="M11.367,0.001H1.715C0.767,0.001,0,0.769,0,1.716v4.709l2.495,0.964
			C2.978,6.83,3.686,6.472,4.48,6.459l1.499-2c0-1.773,1.438-3.21,3.21-3.21c1.773,0,3.21,1.437,3.21,3.21
			c0,0.973-0.434,1.845-1.118,2.434l0,0l0,0c-0.563,0.483-1.293,0.776-2.092,0.776c-0.084,0-0.167-0.004-0.249-0.011L7.198,8.971
			c0.004,0.055,0.006,0.111,0.006,0.167c0,1.48-1.2,2.682-2.68,2.682s-2.68-1.201-2.68-2.682c0-0.004,0-0.01,0-0.015L0,8.411v2.955
			c0,0.947,0.768,1.715,1.715,1.715h9.652c0.947,0,1.715-0.768,1.715-1.715V1.717C13.082,0.77,12.314,0.001,11.367,0.001z"/>
	</g>
</g>
<g>
</g>
<g>
</g>
<g>
</g>
<g>
</g>
<g>
</g>
<g>
</g>
<g>
</g>
<g>
</g>
<g>
</g>
<g>
</g>
<g>
</g>
<g>
</g>
<g>
</g>
<g>
</g>
<g>
</g>
</svg>
