<?xml version="1.0" encoding="UTF-8"?>
<svg xmlns="http://www.w3.org/2000/svg" xmlns:xlink="http://www.w3.org/1999/xlink" width="50pt" height="50pt" viewBox="0 0 50 50" version="1.1">
<g id="surface3319984">
<path style=" stroke:none;fill-rule:nonzero;fill:rgb(90.196078%,49.411765%,13.333333%);fill-opacity:1;" d="M 23.5 0 C 11.09375 0 1 10.09375 1 22.5 C 1 34.90625 11.09375 45 23.5 45 C 26.09375 45 27.9375 44.703125 29.558594 44.441406 C 30.976562 44.214844 32.316406 44 34 44 C 42.164062 44 47.199219 49.601562 47.246094 49.660156 C 47.445312 49.882812 47.722656 50 48 50 C 48.1875 50 48.375 49.949219 48.539062 49.839844 C 48.953125 49.574219 49.113281 49.042969 48.910156 48.59375 C 48.800781 48.34375 46.085938 42.484375 35.191406 39.964844 L 34.894531 39.882812 C 32.203125 39.214844 30.03125 38.128906 28.4375 36.65625 C 26.378906 34.753906 25.988281 32.835938 25.984375 32.824219 C 25.890625 32.3125 25.417969 31.960938 24.910156 32.003906 C 24.394531 32.050781 24 32.480469 24 33 C 24 33.101562 24.007812 35.089844 24.355469 36.96875 C 24.054688 36.988281 23.773438 37 23.5 37 C 15.503906 37 9 30.496094 9 22.5 C 9 14.503906 15.503906 8 23.5 8 C 31.496094 8 38 14.503906 38 22.5 C 38 23.097656 37.960938 23.699219 37.886719 24.300781 C 36 24 34.125 24 34 24 C 33.417969 24 33 24.5 33 25.019531 C 33.011719 25.5625 33.453125 26 33.996094 26 C 34.019531 26 36.097656 26.019531 37.960938 27.21875 C 41.046875 29.199219 41.785156 32.195312 41.792969 32.222656 C 41.886719 32.632812 42.226562 32.941406 42.648438 32.992188 C 43.066406 33.035156 43.472656 32.824219 43.664062 32.445312 C 45.214844 29.308594 46 25.960938 46 22.5 C 46 10.09375 35.90625 0 23.5 0 Z M 38.636719 32.003906 C 38.390625 31.988281 38.199219 32.09375 38.09375 32.277344 C 37.882812 32.648438 38.039062 33.382812 38.464844 34.023438 C 38.898438 34.671875 39.265625 35 39.558594 35 C 39.828125 35 40.09375 34.664062 39.96875 33.855469 C 39.894531 33.371094 39.613281 32.316406 38.894531 32.058594 C 38.804688 32.023438 38.714844 32.007812 38.632812 32.003906 Z M 35.367188 35 C 34.917969 35 34.542969 35.117188 34.316406 35.339844 C 33.722656 35.917969 33.988281 36.933594 34.894531 37.5625 C 35.289062 37.835938 35.855469 38 36.414062 38 C 36.980469 38 37.453125 37.832031 37.746094 37.523438 C 38.269531 36.964844 37.96875 36.171875 36.976562 35.503906 C 36.484375 35.175781 35.914062 35 35.367188 35 Z M 35.367188 35 "/>
</g>
</svg>
